<?xml version="1.0" encoding="iso-8859-1"?>
<!-- Generator: Adobe Illustrator 19.0.0, SVG Export Plug-In . SVG Version: 6.00 Build 0)  -->
<svg version="1.1" id="Capa_1" xmlns="http://www.w3.org/2000/svg" xmlns:xlink="http://www.w3.org/1999/xlink" x="0px" y="0px"
	 viewBox="0 0 480 480" style="enable-background:new 0 0 480 480;" xml:space="preserve">
<g>
	<g>
		<path fill="white" d="M432,128v-24c0-4.418-3.582-8-8-8h-16V72h40c4.418,0,8-3.582,8-8V32c0-17.673-14.327-32-32-32H168
			c-17.673,0-32,14.327-32,32v56H24c-4.418,0-8,3.582-8,8v376c0,4.418,3.582,8,8,8h288c4.418,0,8-3.582,8-8V352h48v56
			c0.017,0.957,0.206,1.903,0.56,2.792h-0.056l24,64c1.543,4.14,6.151,6.245,10.291,4.701c2.175-0.811,3.891-2.526,4.701-4.701
			l24-64h-0.056c0.354-0.889,0.543-1.835,0.56-2.792V144c8.837,0,16,7.163,16,16v104h16V160C464,142.327,449.673,128,432,128z
			 M408,32c0-8.837,7.163-16,16-16s16,7.163,16,16v24h-32V32z M304,464H32V104h272V464z M368,104v232h-48V96c0-4.418-3.582-8-8-8
			H152V32c0-8.837,7.163-16,16-16h228.448c-2.879,4.843-4.415,10.366-4.448,16v64h-16C371.582,96,368,99.582,368,104z M400,449.216
			L387.544,416h24.912L400,449.216z M416,400h-32V176h32V400z M416,160h-32v-16h32V160z M416,128h-32v-16h32V128z"/>
	</g>
</g>
<g>
	<g>
		<path fill="white" d="M272,128H64c-4.418,0-8,3.582-8,8v48c0,4.418,3.582,8,8,8h208c4.418,0,8-3.582,8-8v-48C280,131.582,276.418,128,272,128z
			 M264,176H72v-32h192V176z"/>
	</g>
</g>
<g>
	<g>
		<path fill="white" d="M112,216H64c-4.418,0-8,3.582-8,8v48c0,4.418,3.582,8,8,8h48c4.418,0,8-3.582,8-8v-48C120,219.582,116.418,216,112,216z
			 M104,264H72v-32h32V264z"/>
	</g>
</g>
<g>
	<g>
		<path  fill="white" d="M192,216h-48c-4.418,0-8,3.582-8,8v48c0,4.418,3.582,8,8,8h48c4.418,0,8-3.582,8-8v-48C200,219.582,196.418,216,192,216z
			 M184,264h-32v-32h32V264z"/>
	</g>
</g>
<g>
	<g>
		<path fill="white" d="M272,216h-48c-4.418,0-8,3.582-8,8v48c0,4.418,3.582,8,8,8h48c4.418,0,8-3.582,8-8v-48C280,219.582,276.418,216,272,216z
			 M264,264h-32v-32h32V264z"/>
	</g>
</g>
<g>
	<g>
		<path fill="white" d="M112,296H64c-4.418,0-8,3.582-8,8v48c0,4.418,3.582,8,8,8h48c4.418,0,8-3.582,8-8v-48C120,299.582,116.418,296,112,296z
			 M104,344H72v-32h32V344z"/>
	</g>
</g>
<g>
	<g>
		<path fill="white" d="M192,296h-48c-4.418,0-8,3.582-8,8v48c0,4.418,3.582,8,8,8h48c4.418,0,8-3.582,8-8v-48C200,299.582,196.418,296,192,296z
			 M184,344h-32v-32h32V344z"/>
	</g>
</g>
<g>
	<g>
		<path fill="white" d="M112,376H64c-4.418,0-8,3.582-8,8v48c0,4.418,3.582,8,8,8h48c4.418,0,8-3.582,8-8v-48C120,379.582,116.418,376,112,376z
			 M104,424H72v-32h32V424z"/>
	</g>
</g>
<g>
	<g>
		<path fill="white" d="M192,376h-48c-4.418,0-8,3.582-8,8v48c0,4.418,3.582,8,8,8h48c4.418,0,8-3.582,8-8v-48C200,379.582,196.418,376,192,376z
			 M184,424h-32v-32h32V424z"/>
	</g>
</g>
<g>
	<g>
		<path fill="white" d="M272,296h-48c-4.418,0-8,3.582-8,8v128c0,4.418,3.582,8,8,8h48c4.418,0,8-3.582,8-8V304C280,299.582,276.418,296,272,296z
			 M264,424h-32V312h32V424z"/>
	</g>
</g>
<g>
</g>
<g>
</g>
<g>
</g>
<g>
</g>
<g>
</g>
<g>
</g>
<g>
</g>
<g>
</g>
<g>
</g>
<g>
</g>
<g>
</g>
<g>
</g>
<g>
</g>
<g>
</g>
<g>
</g>
</svg>
