<svg width="39" height="32" viewBox="0 0 39 32" fill="none" xmlns="http://www.w3.org/2000/svg">
<g clip-path="url(#clip0)">
<path d="M26.9658 5.94872C26.6662 5.86231 26.3757 5.95629 26.3174 6.15848C26.2591 6.36067 26.4549 6.59492 26.7545 6.68133C32.7409 8.40775 36.6634 13.0989 35.4984 17.1387C35.4401 17.3409 35.6359 17.5751 35.9356 17.6615C36.2357 17.7481 36.5257 17.654 36.584 17.4518C37.8656 13.008 33.5509 7.84781 26.9658 5.94872Z" fill="white"/>
<path d="M26.332 8.14659C26.0323 8.06019 25.7418 8.15416 25.6835 8.35636C25.6252 8.55855 25.8211 8.79279 26.1207 8.8792C30.3113 10.0877 33.057 13.3714 32.2414 16.1994C32.1831 16.4016 32.3789 16.6358 32.6786 16.7222C32.9788 16.8088 33.2687 16.7146 33.327 16.5124C34.259 13.2808 31.1214 9.52781 26.332 8.14659Z" fill="white"/>
<path d="M25.6981 10.3445C25.3985 10.2581 25.108 10.3521 25.0497 10.5543C24.9914 10.7565 25.1872 10.9907 25.4868 11.0771C27.8813 11.7677 29.4504 13.6442 28.9844 15.2601C28.9261 15.4623 29.1219 15.6965 29.4216 15.7829C29.7217 15.8695 30.0117 15.7754 30.07 15.5732C30.6525 13.5533 28.6912 11.2077 25.6981 10.3445Z" fill="white"/>
<path d="M31.7493 22.2173C30.3101 21.6602 28.9242 20.9955 27.6302 20.2426C26.3777 19.5112 24.7789 19.2889 23.5533 19.6771L21.5042 20.3376C18.3192 17.8684 15.8973 14.9774 14.4698 11.941L16.5202 11.28C17.7346 10.8815 18.3609 9.94124 18.1157 8.88532C17.8663 7.79525 17.7859 6.70987 17.8784 5.65526C17.9752 4.34282 16.6516 2.96875 14.7943 2.43828L10.0451 1.06864C9.93431 1.0367 9.82251 1.00841 9.711 0.983414C8.70727 0.759047 7.72337 0.816922 6.94107 1.14604C6.15874 1.47552 5.67098 2.03716 5.5677 2.73386C5.13152 6.22201 5.90366 9.96693 7.79837 13.5607C9.50434 16.873 12.1974 20.0879 15.583 22.8546C19.2202 25.8723 23.6938 28.4096 28.531 30.1962C28.6409 30.2351 28.7523 30.2708 28.8652 30.3033C28.8685 30.3043 28.8717 30.3052 28.8755 30.3063C30.9227 30.8903 32.9039 30.2427 33.2926 28.8641L34.2137 25.6702C34.6219 24.4163 33.5655 22.9331 31.7493 22.2173ZM33.1319 25.3439C33.1311 25.3469 33.1301 25.3502 33.1293 25.3531L32.2065 28.5529C31.9311 29.5281 30.5297 29.9858 29.083 29.5729C28.9989 29.5463 28.9175 29.5228 28.8471 29.4978C24.1848 27.7755 19.8632 25.3245 16.3461 22.4064C13.0743 19.7325 10.4743 16.6289 8.82574 13.4276C6.99403 9.95367 6.24854 6.33663 6.66862 2.97361C6.74108 2.48582 7.0854 2.08917 7.63881 1.85632C8.19222 1.62347 8.88784 1.58248 9.59819 1.74131C9.67718 1.75892 9.75559 1.77875 9.83371 1.80128L14.5879 3.17233C14.5966 3.17484 14.6052 3.17734 14.6139 3.17985C15.9146 3.55494 16.8415 4.52657 16.7738 5.44421C16.6769 6.55305 16.761 7.69862 17.0247 8.84957C17.198 9.59629 16.7554 10.2606 15.9 10.5413L13.4989 11.3153C13.2915 11.3821 13.2037 11.552 13.2833 11.7305C14.7979 15.1194 17.5016 18.3465 21.1005 21.0624C21.2898 21.2054 21.5629 21.2573 21.7691 21.1909L24.1676 20.4177C25.0327 20.1439 26.1648 20.3017 27.0516 20.8193C28.4171 21.6139 29.8793 22.3153 31.3927 22.9009C32.6757 23.4066 33.4236 24.4568 33.1319 25.3439Z" fill="white"/>
<path d="M14.0586 3.81361L9.62197 2.53413C9.57636 2.52098 9.5309 2.50945 9.48502 2.49938C8.92219 2.37356 8.52289 2.48774 8.33553 2.56665C8.18498 2.62994 7.82842 2.81838 7.77078 3.20173C7.60128 4.56026 7.60796 5.93147 7.79174 7.278C7.81655 7.45697 8.00238 7.62206 8.23635 7.68954C8.28794 7.70442 8.34142 7.71468 8.39657 7.7191C8.70041 7.74404 8.92268 7.58714 8.89275 7.36861C8.71552 6.07079 8.70904 4.74763 8.8721 3.44202C8.88646 3.3454 8.99917 3.291 9.03339 3.27627C9.08827 3.25322 9.20542 3.21996 9.41067 3.26683L13.8462 4.54599C13.8468 4.54615 13.8468 4.54615 13.8468 4.54615C14.1464 4.63256 14.4368 4.53897 14.4951 4.33673C14.554 4.13461 14.3582 3.90001 14.0586 3.81361Z" fill="white"/>
<path d="M31.5457 24.728C31.2461 24.6416 30.9556 24.7356 30.8972 24.9378L30.0347 27.9264C30.0115 28.009 29.9425 28.0732 29.8405 28.1065C29.7386 28.1398 29.6165 28.1391 29.5089 28.1085L29.4592 28.0933C27.6436 27.4225 25.9206 26.6645 24.3385 25.8404C24.0692 25.6997 23.734 25.7225 23.5918 25.8913C23.4495 26.0602 23.5541 26.3114 23.8245 26.4525C25.4659 27.3075 27.252 28.0932 29.1415 28.7913C29.1852 28.8071 29.2754 28.8347 29.2885 28.8385C29.6998 28.9559 30.1165 28.9582 30.4626 28.845C30.8088 28.7313 31.0427 28.5155 31.1209 28.2381L31.9829 25.2509C32.0413 25.0487 31.8454 24.8145 31.5457 24.728Z" fill="white"/>
</g>
<defs>
<clipPath id="clip0">
<rect width="33.8975" height="22.8749" fill="white" transform="translate(6.33859) rotate(16.0871)"/>
</clipPath>
</defs>
</svg>
